<?xml version="1.0" standalone="no"?>
<!DOCTYPE svg PUBLIC "-//W3C//DTD SVG 20010904//EN"
 "http://www.w3.org/TR/2001/REC-SVG-20010904/DTD/svg10.dtd">
<svg version="1.0" xmlns="http://www.w3.org/2000/svg"
 width="2000.000000pt" height="2000.000000pt" viewBox="0 0 2000.000000 2000.000000"
 preserveAspectRatio="xMidYMid meet">
<metadata>
Created by potrace 1.14, written by Peter Selinger 2001-2017
</metadata>
<g transform="translate(0.000000,2000.000000) scale(0.100000,-0.100000)"
fill="#000000" stroke="none">
<path d="M9857 16184 c-1 -1 -49 -5 -107 -9 -58 -3 -118 -8 -135 -9 -126 -14
-160 -18 -240 -32 -606 -101 -1223 -352 -1708 -696 -243 -172 -554 -453 -726
-654 -344 -404 -607 -867 -775 -1364 -43 -130 -109 -367 -121 -440 -3 -19 -10
-53 -15 -75 -8 -38 -15 -76 -25 -135 -2 -14 -9 -63 -15 -110 -6 -47 -13 -99
-15 -117 -23 -163 -24 -701 0 -822 1 -9 6 -45 10 -81 5 -55 29 -202 51 -315
11 -59 45 -201 60 -255 50 -170 126 -395 138 -407 5 -5 27 43 41 88 4 13 11
29 15 34 4 6 13 28 20 50 23 71 58 140 82 161 41 35 77 41 246 39 99 -1 165 2
169 8 4 6 0 8 -9 4 -10 -3 -18 1 -21 11 -2 9 -20 71 -40 137 -49 169 -85 329
-102 460 -4 28 -9 61 -11 75 -19 124 -26 534 -11 680 8 78 9 87 27 223 16 115
65 330 109 472 l36 120 434 2 433 2 -5 -42 c-3 -23 -12 -82 -21 -132 -8 -49
-18 -115 -21 -145 -4 -30 -8 -66 -10 -80 -3 -24 -11 -92 -20 -170 -14 -126
-19 -250 -19 -510 0 -327 4 -400 40 -655 10 -76 43 -260 63 -350 10 -49 16
-92 11 -95 -4 -3 -144 -5 -309 -4 -166 0 -301 -3 -301 -7 0 -4 8 -6 18 -4 29
5 97 -30 118 -61 11 -16 30 -54 41 -84 12 -30 61 -154 108 -275 48 -121 91
-225 95 -230 12 -15 292 -13 297 2 2 6 -15 80 -37 164 -23 85 -45 170 -50 189
-4 19 -13 51 -19 70 -26 84 -5 154 62 204 26 20 40 20 343 21 l315 0 -6 22
c-9 37 -54 246 -60 283 -24 134 -34 203 -40 260 -4 36 -9 68 -10 71 -2 3 -7
45 -10 95 -4 49 -8 107 -10 129 -5 51 -5 464 0 530 8 110 16 212 20 250 2 22
7 65 10 95 8 73 52 331 68 400 l12 55 677 2 676 2 0 -1090 c0 -600 3 -1093 7
-1097 3 -4 138 -7 298 -7 282 0 293 -1 327 -22 19 -12 43 -35 53 -52 33 -56
29 -79 -83 -496 -12 -44 -73 -273 -135 -510 -132 -500 -234 -884 -240 -905 -8
-25 -48 -66 -80 -82 -17 -8 -56 -14 -87 -14 -49 1 -58 -2 -58 -16 0 -22 -9
-23 -40 -1 -21 15 -55 17 -240 19 -118 1 -225 2 -237 3 -13 0 -40 17 -62 36
-33 30 -42 48 -66 132 -15 54 -30 102 -33 107 -3 5 -16 -30 -29 -78 -31 -118
-48 -151 -91 -178 -36 -22 -44 -22 -347 -23 -181 -1 -324 3 -343 9 -63 19 -87
56 -122 189 -60 231 -55 219 -112 263 -29 21 -83 65 -121 98 -38 32 -70 56
-72 54 -3 -3 33 -103 56 -153 39 -86 109 -284 109 -307 0 -46 -25 -93 -65
-124 l-37 -28 -170 -1 -170 0 32 -25 c414 -324 949 -589 1459 -721 177 -46
414 -90 556 -104 39 -4 78 -9 87 -11 33 -6 283 -17 388 -17 108 0 353 11 389
18 11 2 48 6 83 10 74 7 265 39 388 65 128 27 457 126 535 160 11 5 79 32 150
61 220 89 496 236 715 382 63 42 216 153 243 176 4 4 -39 6 -95 5 -57 -1 -108
3 -115 8 -7 5 -18 6 -25 2 -19 -12 -657 -12 -693 -1 -37 12 -72 43 -93 82 -9
17 -17 32 -17 35 -5 27 -28 79 -38 83 -7 2 -108 4 -225 3 l-214 -1 -29 -70
c-32 -75 -84 -134 -121 -136 -13 -1 -117 -3 -233 -3 -177 -2 -215 -5 -242 -19
-18 -10 -34 -15 -34 -12 -1 3 -2 10 -3 17 -1 8 -25 12 -71 13 -84 1 -136 23
-165 71 -28 44 -30 99 -8 154 9 25 68 171 129 325 l112 280 2 290 c2 160 3
292 4 295 0 3 45 5 99 5 53 0 104 1 113 3 10 2 25 25 34 50 9 26 25 65 35 87
10 22 25 61 34 87 8 26 20 56 25 65 5 10 24 56 42 103 33 88 63 161 80 195 12
25 69 65 92 65 9 0 17 4 17 8 0 5 -128 8 -285 8 -183 -1 -285 3 -286 9 -4 27
-5 2152 -1 2162 3 9 166 12 677 12 l674 0 11 -53 c6 -29 13 -63 15 -77 3 -13
7 -35 10 -49 8 -37 53 -357 59 -420 26 -250 27 -763 2 -896 -2 -11 -7 -50 -11
-89 -4 -38 -8 -72 -10 -75 -1 -3 -6 -30 -9 -61 -7 -58 -8 -63 -27 -159 -17
-87 -59 -278 -64 -292 -4 -9 -30 -13 -90 -12 -83 1 -121 -9 -49 -13 65 -4 103
-39 142 -133 13 -30 27 -64 32 -75 5 -11 75 -190 157 -397 81 -208 150 -378
153 -378 5 0 62 144 103 259 18 52 27 65 45 66 12 1 25 5 29 9 4 4 7 127 8
274 1 247 2 270 20 300 22 37 72 72 101 72 20 0 20 0 50 150 23 115 33 170 38
200 2 19 8 58 12 85 3 28 8 57 9 66 2 9 6 52 10 95 4 43 9 87 11 97 7 41 18
272 18 397 0 131 -12 445 -19 479 -1 9 -6 48 -9 86 -9 95 -28 250 -41 330 -12
74 -15 91 -20 134 -4 25 -9 54 -11 63 -5 16 23 17 430 17 240 0 436 -2 436 -4
0 -3 15 -56 34 -119 67 -218 114 -467 133 -696 14 -163 8 -532 -11 -669 -22
-163 -26 -193 -31 -211 -3 -8 -7 -33 -11 -55 -3 -22 -18 -89 -34 -150 -36
-141 -31 -125 -60 -213 l-25 -77 -137 0 c-76 -1 -140 -4 -144 -8 -4 -4 -1 -7
7 -7 24 0 76 -62 84 -98 4 -19 7 -312 7 -653 0 -460 3 -619 11 -620 19 -1 110
-1 134 0 15 1 39 23 76 74 70 95 163 235 217 325 l43 73 1 402 c1 384 2 404
21 437 36 61 80 76 232 75 l131 0 31 125 c84 342 113 577 115 930 1 296 -5
401 -34 605 -30 210 -66 386 -111 539 -12 38 -22 76 -24 85 -8 38 -101 294
-142 391 -425 1000 -1231 1786 -2243 2190 -88 35 -347 124 -395 135 -11 3 -56
14 -100 25 -69 18 -203 46 -300 64 -192 36 -438 57 -683 59 -90 1 -164 1 -165
1z m673 -929 c285 -180 588 -559 802 -1005 68 -141 158 -348 158 -362 0 -2
-259 -3 -575 -3 -504 0 -575 2 -576 15 -3 38 -5 1436 -2 1446 4 12 109 -38
193 -91z m-853 -637 l-2 -733 -572 0 c-422 0 -573 3 -573 11 0 38 170 401 263
564 172 300 395 575 575 710 19 14 39 30 45 35 42 37 230 144 254 145 8 0 11
-181 10 -732z m2049 442 c18 0 415 -277 444 -309 3 -3 34 -31 70 -61 71 -60
263 -249 326 -320 64 -75 128 -151 143 -174 8 -12 17 -23 20 -26 15 -13 191
-271 191 -279 0 -4 -164 -6 -365 -6 l-364 0 -41 120 c-85 254 -243 611 -340
770 -20 34 -39 68 -42 75 -3 8 -48 79 -100 156 l-95 142 75 -44 c40 -24 76
-44 78 -44z m-3318 34 c-38 -54 -44 -63 -132 -209 -136 -224 -329 -647 -432
-945 l-19 -55 -358 0 c-196 0 -357 3 -357 6 0 12 116 189 180 276 152 206 377
445 545 578 28 22 52 43 55 46 22 26 349 249 366 249 4 0 15 6 23 14 15 13
149 86 158 86 2 0 -11 -21 -29 -46z"/>
<path d="M6820 11041 c0 -4 11 -7 25 -7 14 0 25 3 25 7 0 3 -11 7 -25 7 -14 0
-25 -4 -25 -7z"/>
<path d="M6885 11040 c3 -5 8 -10 11 -10 2 0 4 5 4 10 0 6 -5 10 -11 10 -5 0
-7 -4 -4 -10z"/>
<path d="M6910 11041 c0 -4 11 -8 25 -9 14 -1 25 2 25 7 0 5 -11 9 -25 9 -14
0 -25 -3 -25 -7z"/>
<path d="M6970 11041 c0 -4 11 -7 25 -7 14 0 25 3 25 7 0 3 -11 7 -25 7 -14 0
-25 -4 -25 -7z"/>
<path d="M7030 11039 c0 -5 5 -7 10 -4 6 3 10 8 10 11 0 2 -4 4 -10 4 -5 0
-10 -5 -10 -11z"/>
<path d="M10925 11040 c3 -5 8 -10 11 -10 2 0 4 5 4 10 0 6 -5 10 -11 10 -5 0
-7 -4 -4 -10z"/>
<path d="M10950 11040 c0 -5 5 -10 10 -10 6 0 10 5 10 10 0 6 -4 10 -10 10 -5
0 -10 -4 -10 -10z"/>
<path d="M10985 11040 c3 -5 8 -10 11 -10 2 0 4 5 4 10 0 6 -5 10 -11 10 -5 0
-7 -4 -4 -10z"/>
<path d="M11010 11040 c0 -4 25 -7 55 -6 30 0 55 3 55 7 0 3 -25 6 -55 6 -30
0 -55 -3 -55 -7z"/>
<path d="M11135 11040 c3 -5 8 -10 11 -10 2 0 4 5 4 10 0 6 -5 10 -11 10 -5 0
-7 -4 -4 -10z"/>
<path d="M11160 11041 c0 -3 18 -7 40 -8 22 -2 40 1 40 6 0 4 -18 8 -40 8 -22
0 -40 -3 -40 -6z"/>
<path d="M11255 11040 c3 -5 8 -10 11 -10 2 0 4 5 4 10 0 6 -5 10 -11 10 -5 0
-7 -4 -4 -10z"/>
<path d="M11285 11040 c3 -5 8 -10 11 -10 2 0 4 5 4 10 0 6 -5 10 -11 10 -5 0
-7 -4 -4 -10z"/>
<path d="M11310 11041 c0 -4 11 -7 25 -7 14 0 25 3 25 7 0 3 -11 7 -25 7 -14
0 -25 -4 -25 -7z"/>
<path d="M11370 11039 c0 -5 11 -8 25 -7 14 1 25 5 25 9 0 4 -11 7 -25 7 -14
0 -25 -4 -25 -9z"/>
<path d="M11435 11040 c3 -5 8 -10 11 -10 2 0 4 5 4 10 0 6 -5 10 -11 10 -5 0
-7 -4 -4 -10z"/>
<path d="M11465 11040 c3 -5 8 -10 11 -10 2 0 4 5 4 10 0 6 -5 10 -11 10 -5 0
-7 -4 -4 -10z"/>
<path d="M8410 11013 c44 -26 63 -62 87 -162 9 -39 20 -71 23 -71 6 0 19 45
36 119 11 51 64 121 93 121 8 0 12 3 8 6 -3 3 -68 7 -145 8 l-139 1 37 -22z"/>
<path d="M9330 11028 c0 -5 4 -8 9 -8 19 0 69 -63 80 -103 7 -23 22 -73 33
-112 l21 -70 27 101 c32 119 40 134 84 171 l34 28 -144 0 c-79 0 -144 -3 -144
-7z"/>
<path d="M2939 10956 c-2 -2 -27 -6 -54 -10 -177 -21 -355 -131 -447 -276
-151 -239 -112 -592 88 -786 108 -104 248 -153 456 -159 144 -3 164 -7 173
-35 23 -72 -2 -104 -87 -115 -63 -8 -225 1 -284 16 -35 9 -46 8 -68 -6 -14
-10 -26 -21 -26 -25 0 -4 19 -16 43 -25 110 -44 338 -53 421 -16 65 28 89 70
83 143 -6 68 -33 112 -80 127 -17 6 -95 13 -172 15 -153 4 -223 21 -320 76
-180 103 -278 348 -230 577 31 143 122 269 246 340 149 85 392 108 610 58 129
-29 269 -91 351 -156 l26 -22 32 23 31 22 -58 45 c-97 75 -263 147 -388 169
-22 4 -49 9 -60 11 -24 6 -281 13 -286 9z"/>
<path d="M3882 10875 c-3 -5 -6 -404 -6 -886 l-1 -877 33 -4 c23 -3 36 1 41
11 5 12 7 1674 2 1751 -1 17 -59 21 -69 5z"/>
<path d="M4042 10882 c-9 -3 -12 -208 -12 -888 l0 -884 40 0 40 0 0 885 c0
487 -3 885 -7 886 -5 0 -17 2 -28 3 -12 1 -26 1 -33 -2z"/>
<path d="M4205 10881 c-20 -6 -20 -14 -20 -888 l0 -881 38 -4 c28 -3 37 0 38
12 0 8 1 406 1 884 1 847 1 870 -18 876 -10 4 -28 4 -39 1z"/>
<path d="M4340 9998 l0 -888 39 0 39 0 -1 340 c0 187 3 343 6 347 4 3 159 6
344 6 l338 1 3 -346 2 -346 40 -4 40 -4 0 891 0 891 -27 -2 c-16 -1 -34 -3
-40 -3 -10 -1 -13 -77 -13 -346 l0 -345 -347 2 -346 3 0 343 c1 311 0 342 -15
343 -10 0 -27 2 -39 3 l-23 3 0 -889z m768 75 l3 -39 -343 2 c-189 1 -345 2
-348 3 -3 0 -5 16 -4 33 l1 33 219 5 c120 3 275 4 344 4 l125 -2 3 -39z m2
-155 l0 -38 -348 0 -348 0 4 38 4 39 344 0 344 0 0 -39z"/>
<path d="M5277 10878 c-8 -5 -11 -260 -12 -880 0 -480 1 -878 3 -884 3 -11 60
-10 70 1 4 4 7 1665 3 1750 -1 15 -8 20 -27 20 -14 0 -31 -3 -37 -7z"/>
<path d="M5437 10882 c-16 -3 -17 -68 -17 -890 l0 -887 37 1 38 1 1 889 1 889
-22 0 c-12 0 -29 -1 -38 -3z"/>
<path d="M5600 10880 l-25 -6 0 -882 0 -882 37 0 38 0 0 884 c0 698 -3 885
-12 888 -7 3 -24 2 -38 -2z"/>
<path d="M6513 10882 c-15 -2 -27 -18 -44 -60 -12 -31 -28 -70 -35 -87 -6 -16
-92 -232 -189 -480 -98 -247 -184 -463 -191 -479 -8 -16 -14 -33 -14 -39 0 -5
-6 -23 -14 -40 -14 -32 -54 -131 -103 -257 -14 -36 -29 -74 -34 -85 -4 -11
-28 -71 -53 -132 l-44 -113 43 0 c37 0 45 4 50 23 4 12 13 36 21 52 7 17 33
82 57 145 25 63 92 234 150 380 109 275 224 565 347 878 39 100 73 182 75 182
1 0 17 -37 35 -82 18 -46 38 -97 46 -115 8 -17 14 -34 14 -37 0 -3 9 -25 19
-49 11 -23 60 -145 109 -272 78 -198 208 -527 389 -987 45 -113 47 -116 80
-120 18 -2 37 -2 41 1 5 4 -69 202 -164 441 -95 239 -194 489 -220 555 -109
280 -257 652 -268 680 -7 17 -19 44 -25 61 -13 32 -35 43 -78 36z"/>
<path d="M6660 10883 c0 -4 109 -282 121 -308 4 -11 18 -45 29 -75 12 -30 27
-68 34 -85 8 -16 28 -68 46 -115 17 -47 38 -98 45 -115 7 -16 75 -187 151
-380 75 -192 167 -426 204 -520 l68 -170 41 -6 c23 -3 41 -2 41 3 0 4 -52 139
-116 300 -64 161 -136 345 -161 408 -25 63 -51 129 -58 145 -7 17 -84 210
-170 430 -217 551 -188 490 -235 490 -22 0 -40 -1 -40 -2z"/>
<path d="M6838 10879 c-9 -6 -9 -13 -1 -31 7 -13 69 -167 138 -343 70 -176
146 -369 170 -430 25 -60 108 -272 186 -470 77 -198 149 -379 160 -401 10 -23
21 -54 25 -68 5 -23 11 -26 50 -26 l44 0 -21 53 c-12 28 -32 79 -44 112 -13
33 -54 139 -93 235 -38 96 -127 319 -196 495 -70 176 -130 329 -135 340 -5 11
-55 136 -111 278 -56 141 -105 257 -109 258 -39 5 -52 4 -63 -2z"/>
<path d="M7000 10882 c-6 -2 -6 -10 -1 -20 8 -15 90 -223 415 -1052 97 -246
104 -264 124 -310 6 -14 43 -107 82 -207 l72 -183 42 0 43 0 -75 188 c-41 103
-78 196 -83 207 -5 11 -18 45 -29 75 -11 30 -25 64 -30 75 -8 18 -183 460
-352 890 -39 99 -85 216 -102 259 -30 76 -32 79 -64 80 -17 1 -36 0 -42 -2z"/>
<path d="M7784 10883 c-8 -3 -1 -44 22 -131 19 -70 59 -221 89 -337 30 -115
67 -253 81 -305 14 -52 27 -102 29 -110 7 -30 207 -786 222 -838 l15 -53 41 3
41 3 19 70 c10 39 20 79 22 90 4 17 22 84 100 375 24 91 34 132 34 140 0 3 5
19 11 35 7 17 13 37 15 45 3 15 39 151 89 340 131 493 175 664 171 669 -3 6
-33 6 -66 2 -8 -1 -28 -69 -85 -286 -25 -99 -71 -270 -101 -380 -56 -207 -56
-210 -68 -260 -4 -16 -30 -113 -57 -215 -27 -102 -52 -194 -54 -205 -2 -11
-19 -76 -38 -145 -32 -122 -33 -124 -44 -90 -12 38 -85 310 -101 375 -5 22
-18 74 -29 115 -12 41 -30 109 -40 150 -11 41 -37 138 -57 215 -21 77 -38 145
-39 150 -1 6 -9 35 -18 65 -9 30 -42 154 -73 275 -32 121 -61 224 -65 228 -9
10 -49 16 -66 10z"/>
<path d="M7948 10881 c-13 -5 -4 -48 57 -276 40 -148 111 -416 159 -595 47
-179 96 -365 110 -415 l23 -90 12 45 c7 25 16 56 20 70 4 14 4 39 -1 55 -4 17
-10 39 -12 50 -2 11 -12 47 -21 80 -9 33 -29 110 -45 170 -25 98 -83 316 -196
745 -19 74 -37 140 -39 146 -4 14 -46 23 -67 15z"/>
<path d="M8102 10881 c-5 -3 7 -66 28 -146 21 -77 52 -194 69 -260 60 -230
161 -610 169 -640 l9 -30 11 40 c28 103 29 110 16 150 -7 22 -61 226 -120 452
-59 227 -111 418 -114 424 -8 12 -54 19 -68 10z"/>
<path d="M8254 10866 c3 -12 24 -88 45 -171 58 -219 151 -569 154 -579 2 -5
12 24 23 65 22 84 27 51 -46 324 -17 66 -45 174 -62 240 -17 66 -34 124 -38
128 -4 4 -23 9 -44 11 -34 2 -37 0 -32 -18z"/>
<path d="M8879 10880 c-5 -4 -43 -134 -85 -291 -41 -156 -134 -504 -205 -774
-133 -500 -164 -615 -179 -673 l-8 -33 40 3 41 3 28 105 c16 58 31 116 34 129
2 14 16 65 30 115 14 50 52 195 86 321 33 127 62 237 65 245 8 30 35 135 39
152 2 10 16 62 30 115 15 54 28 105 30 113 2 8 15 60 30 115 45 168 93 355 92
356 -9 4 -60 3 -68 -1z"/>
<path d="M9029 10866 c-9 -22 -43 -148 -103 -379 -19 -73 -47 -177 -61 -232
-15 -55 -40 -147 -55 -205 -75 -285 -212 -803 -225 -850 -24 -87 -24 -88 7
-92 34 -5 54 8 61 42 3 14 17 70 32 125 15 55 29 107 31 115 5 22 60 231 89
340 15 52 39 145 55 205 47 180 95 364 174 660 41 154 73 281 71 283 -2 2 -18
5 -35 6 -24 2 -34 -3 -41 -18z"/>
<path d="M9189 10878 c-1 -5 -2 -11 -4 -15 -1 -5 -5 -21 -10 -38 -4 -16 -23
-88 -42 -160 -19 -71 -37 -137 -38 -145 -2 -8 -65 -247 -140 -530 -76 -283
-159 -597 -185 -697 l-47 -181 38 -4 c29 -3 40 1 44 12 5 17 105 396 110 420
26 109 71 270 75 270 3 0 41 -120 84 -267 42 -148 89 -306 103 -353 l26 -85
38 0 c45 0 35 -23 109 260 23 88 53 201 67 250 13 50 30 115 38 145 7 30 61
233 118 450 58 217 121 455 141 529 20 74 33 137 31 140 -3 3 -21 5 -40 6
l-34 1 -20 -81 c-12 -44 -32 -123 -47 -175 -14 -52 -27 -102 -29 -110 -10 -43
-87 -327 -92 -340 -3 -8 -21 39 -40 105 -19 66 -63 221 -99 345 -36 124 -67
232 -70 240 -4 16 -83 22 -85 8z m141 -483 c120 -414 112 -377 91 -460 -9 -38
-20 -65 -23 -60 -3 6 -20 60 -38 120 -55 191 -97 336 -134 461 -34 120 -35
122 -20 180 18 73 23 88 28 83 2 -2 45 -148 96 -324z m-119 -165 c27 -96 52
-182 54 -190 2 -8 24 -86 49 -174 l46 -158 -16 -62 c-8 -33 -19 -64 -22 -68
-4 -4 -42 113 -84 260 -42 147 -88 306 -102 353 -24 82 -24 88 -10 145 19 74
25 92 30 79 2 -5 27 -89 55 -185z m-117 -182 c10 -35 21 -74 27 -88 5 -14 11
-34 14 -45 8 -36 23 -88 85 -300 l61 -210 -15 -51 c-9 -28 -16 -58 -16 -67 0
-47 -20 -3 -54 121 -21 75 -67 234 -102 352 l-62 215 16 68 c9 37 20 67 23 67
4 0 14 -28 23 -62z"/>
<path d="M9841 10880 c-6 -3 -22 -49 -36 -101 -14 -52 -37 -137 -51 -189 -14
-52 -43 -162 -64 -245 -22 -82 -104 -394 -183 -692 -89 -336 -139 -544 -133
-546 6 -2 24 -1 40 2 28 6 31 10 63 136 19 72 45 171 58 220 14 50 52 194 86
320 33 127 78 298 100 380 22 83 41 157 43 165 2 8 36 134 75 279 39 146 69
267 67 269 -8 7 -55 9 -65 2z"/>
<path d="M9989 10866 c-5 -12 -20 -64 -33 -116 -14 -52 -53 -198 -86 -325 -34
-126 -77 -291 -97 -365 -54 -204 -85 -321 -158 -595 -37 -137 -72 -273 -79
-302 l-13 -51 29 -4 c40 -6 53 8 71 82 15 57 68 258 152 575 40 149 66 249 69
260 10 37 30 113 52 192 14 51 27 102 29 114 2 11 7 29 10 39 3 10 8 27 10 37
2 10 30 119 64 243 33 123 58 226 56 228 -2 2 -18 5 -35 6 -24 2 -34 -3 -41
-18z"/>
<path d="M10130 10805 c-12 -44 -32 -120 -45 -170 -14 -49 -79 -297 -145 -550
-67 -253 -126 -478 -132 -500 -6 -22 -12 -44 -14 -50 -1 -5 -10 -37 -19 -70
-9 -33 -18 -67 -20 -75 -1 -8 -19 -75 -38 -148 l-36 -133 41 3 40 3 23 78 c12
42 21 77 19 77 -2 0 3 18 11 40 8 22 12 40 9 40 -2 0 0 8 5 18 6 11 12 30 14
43 3 13 10 44 17 69 7 25 14 52 16 60 2 8 17 67 34 130 17 63 33 122 35 130 4
18 72 272 85 320 13 48 58 218 120 455 29 110 58 222 66 249 8 27 12 52 9 55
-3 2 -21 5 -40 6 l-34 1 -21 -81z"/>
<path d="M10936 10876 c-7 -6 -34 -63 -59 -126 -63 -160 -213 -540 -378 -960
-77 -195 -144 -364 -149 -375 -5 -11 -28 -67 -50 -125 -23 -58 -48 -119 -55
-137 -20 -43 -20 -43 28 -43 41 0 44 2 56 38 16 46 87 226 107 269 8 17 14 33
14 36 0 3 5 18 12 34 6 15 12 30 13 33 1 3 5 14 10 25 4 11 45 115 91 230 45
116 126 320 179 455 53 135 122 308 152 385 30 76 57 143 60 149 6 8 85 -186
322 -789 56 -143 106 -269 111 -280 5 -11 45 -112 89 -225 44 -113 95 -241
113 -284 33 -78 33 -79 71 -80 20 -1 37 2 37 7 0 8 -108 286 -168 432 -20 50
-37 92 -38 95 0 3 -4 14 -9 25 -5 11 -44 110 -87 220 -43 110 -83 209 -88 220
-4 11 -68 171 -140 355 -72 184 -135 344 -140 355 -5 11 -12 30 -15 43 -4 12
-12 22 -18 23 -7 0 -22 2 -35 3 -12 2 -29 -2 -36 -8z"/>
<path d="M11104 10879 c-2 -4 13 -52 35 -106 22 -54 92 -231 156 -393 63 -162
120 -304 124 -315 5 -11 71 -177 147 -370 75 -192 145 -368 154 -390 9 -22 30
-75 45 -117 30 -79 40 -88 87 -78 l26 5 -90 225 c-49 124 -91 230 -92 235 -2
6 -8 24 -15 40 -7 17 -24 59 -37 95 -14 36 -34 85 -44 110 -17 40 -167 419
-237 600 -14 36 -31 79 -38 95 -8 17 -41 102 -76 190 -34 88 -65 164 -69 168
-10 11 -70 16 -76 6z"/>
<path d="M11270 10874 c0 -6 13 -45 29 -85 75 -188 307 -776 348 -879 24 -63
48 -124 53 -135 5 -11 39 -96 76 -190 36 -93 72 -183 79 -200 7 -16 34 -85 61
-152 l48 -123 41 0 42 0 -119 303 c-130 329 -129 326 -151 377 -8 19 -51 127
-95 240 -122 311 -334 845 -337 848 -1 1 -19 4 -39 5 -23 2 -36 -1 -36 -9z"/>
<path d="M11435 10880 c-3 -5 189 -503 225 -585 5 -11 99 -249 210 -530 282
-716 251 -649 294 -656 20 -3 39 -3 41 1 3 5 -8 41 -24 81 -17 41 -66 166
-111 279 -44 113 -84 214 -89 225 -5 11 -77 193 -161 405 -83 212 -155 394
-160 405 -5 11 -39 97 -75 190 -37 94 -70 174 -75 178 -10 11 -70 16 -75 7z"/>
<path d="M12362 10882 c-9 -3 -12 -226 -12 -888 l0 -884 38 0 37 0 0 884 0
884 -26 4 c-14 2 -31 2 -37 0z"/>
<path d="M12505 10880 c-1 -3 -3 -402 -3 -887 l1 -883 38 0 39 0 -2 888 -3
887 -33 0 c-19 0 -35 -2 -37 -5z"/>
<path d="M12669 10879 c-10 -6 -13 -210 -13 -887 l-1 -880 33 -4 c18 -2 36 1
40 6 7 13 10 1766 2 1767 -30 5 -51 4 -61 -2z"/>
<path d="M12822 10882 c-9 -3 -12 -208 -12 -888 l0 -884 33 -1 c48 0 629 0
648 0 12 1 16 10 16 36 -1 19 -6 36 -12 38 -5 2 -144 3 -307 2 l-298 0 0 37
c0 36 2 38 33 39 17 0 156 1 307 2 l275 2 0 35 0 35 -230 2 c-126 2 -265 3
-307 3 l-78 0 0 38 0 37 307 0 306 0 3 38 c3 34 1 37 -24 38 -15 1 -154 1
-309 2 l-283 0 0 694 c0 381 -3 693 -7 694 -5 0 -17 2 -28 3 -12 1 -26 1 -33
-2z"/>
<path d="M13682 10880 c-8 -6 -9 -1756 -1 -1764 3 -3 20 -8 37 -10 24 -2 32 1
33 13 5 80 2 1746 -3 1754 -7 11 -54 16 -66 7z"/>
<path d="M13835 10881 c-3 -2 -5 -401 -5 -887 l0 -882 36 -4 c19 -2 37 -1 39
3 7 11 4 1769 -3 1770 -33 4 -64 4 -67 0z"/>
<path d="M13989 10881 c-6 -26 -4 -1750 2 -1762 5 -10 18 -14 41 -11 l33 4 -2
880 c0 484 -4 882 -6 885 -8 7 -67 10 -68 4z"/>
<path d="M14140 9998 l0 -888 313 -1 c171 0 327 -1 345 -2 17 -1 32 0 33 3 6
34 3 70 -5 73 -6 2 -145 3 -308 3 -164 -1 -298 1 -299 4 0 3 -2 20 -3 38 -2
32 -2 32 43 33 25 0 164 0 309 1 275 0 265 -1 265 43 0 8 -1 19 -2 25 -1 6
-116 11 -308 12 -301 3 -308 3 -307 23 2 54 -19 51 302 50 163 -1 302 1 308 2
6 2 9 14 8 26 -1 12 -3 29 -3 37 -1 13 -42 15 -308 15 l-307 0 0 693 c0 473
-3 692 -11 693 -5 0 -22 2 -37 3 l-28 2 0 -888z"/>
<path d="M15009 10886 c-1 -1 -2 -400 -3 -888 l-1 -886 37 -4 c33 -3 38 -1 38
17 4 144 1 1748 -3 1752 -4 4 -62 11 -68 9z"/>
<path d="M15163 10878 c-3 -6 -6 -1491 -4 -1724 1 -44 16 -56 57 -45 20 6 20
7 20 890 l-1 884 -33 1 c-19 1 -36 -2 -39 -6z"/>
<path d="M15328 10879 c-14 -8 -16 -100 -15 -889 l0 -880 39 0 38 0 0 885 c0
487 -3 885 -7 886 -5 0 -15 2 -24 4 -8 1 -23 -1 -31 -6z"/>
<path d="M15469 10830 c-3 -306 0 -1713 5 -1717 3 -3 119 -5 258 -5 139 1 339
1 444 1 l191 1 1 30 c0 16 -5 33 -11 37 -7 4 -192 8 -411 8 l-399 0 -3 32 c-1
18 2 35 7 39 5 3 191 6 412 6 l402 0 2 39 3 39 -406 0 c-223 0 -409 2 -414 5
-4 2 -7 19 -6 37 l2 33 409 0 409 0 2 38 c2 28 -1 37 -14 38 -9 1 -195 2 -412
2 l-395 2 0 153 0 152 25 1 c14 0 102 0 195 0 94 0 177 2 186 4 10 4 15 16 15
38 l-1 32 -210 5 -210 5 1 28 c1 15 2 31 3 35 0 5 93 8 206 8 113 -1 205 1
206 4 6 28 5 66 -1 70 -5 3 -99 4 -209 4 -111 -1 -201 1 -202 5 -1 3 -2 21 -4
39 l-3 32 212 0 212 0 -1 38 0 37 -210 5 -210 5 0 150 0 150 408 0 c224 0 408
2 408 5 7 29 6 65 0 70 -5 3 -190 5 -410 5 -221 -1 -401 2 -402 5 -1 3 -2 20
-4 37 l-3 33 412 2 411 3 0 35 0 35 -410 5 -410 5 0 35 0 35 405 0 c264 0 408
3 412 10 12 16 9 53 -4 61 -6 4 -209 8 -450 8 l-438 1 -1 -55z"/>
<path d="M16524 10881 c-10 -10 -3 -69 9 -73 6 -2 266 -4 577 -3 l565 1 0 39
0 39 -573 0 c-316 1 -576 -1 -578 -3z"/>
<path d="M2966 10803 c-2 -2 -22 -5 -44 -8 -250 -26 -420 -210 -420 -454 0
-258 160 -438 406 -456 37 -3 113 -7 168 -9 88 -2 108 -6 145 -28 67 -39 93
-94 94 -193 0 -67 -4 -86 -24 -118 -53 -87 -144 -121 -308 -119 -115 2 -231
25 -304 61 -56 28 -56 28 -83 9 -14 -11 -26 -23 -26 -27 0 -13 109 -67 170
-86 84 -25 133 -30 275 -29 108 0 139 4 185 22 102 40 168 113 188 209 23 104
-9 229 -74 297 -15 16 -52 40 -81 53 -49 22 -71 26 -200 29 -204 5 -285 31
-362 120 -36 41 -76 120 -86 169 -9 51 -7 161 5 204 25 93 95 177 184 221 198
97 558 63 749 -72 29 -21 34 -19 74 19 27 25 -170 131 -295 158 -12 3 -32 7
-43 10 -63 13 -284 27 -293 18z"/>
<path d="M16520 10690 l0 -40 578 0 578 0 2 40 3 40 -581 0 -580 0 0 -40z"/>
<path d="M2890 10634 c-173 -46 -261 -186 -228 -363 19 -105 66 -167 158 -209
49 -23 69 -26 197 -28 79 -2 163 -8 186 -14 132 -34 224 -128 257 -261 57
-237 -66 -432 -305 -482 -88 -19 -264 -14 -366 9 -89 20 -198 63 -249 99 l-39
27 -30 -23 -31 -23 27 -23 c82 -67 261 -134 399 -149 244 -27 432 17 548 130
94 91 136 194 136 331 0 202 -110 365 -290 431 -31 11 -99 18 -215 23 -175 8
-210 16 -253 59 -58 58 -77 199 -36 277 29 56 92 101 161 116 70 15 224 14
301 -1 56 -11 177 -54 197 -70 6 -4 25 2 43 15 l34 23 -46 27 c-107 63 -240
94 -396 93 -58 0 -130 -7 -160 -14z"/>
<path d="M6466 10394 c-43 -109 -87 -218 -97 -241 -11 -23 -19 -47 -19 -53 0
-7 -7 -24 -15 -38 -8 -15 -31 -70 -50 -122 -65 -171 -86 -225 -95 -245 -13
-28 -230 -578 -230 -582 0 -2 18 -3 41 -1 l41 3 52 130 c50 123 131 330 373
945 57 146 108 273 114 283 7 13 4 31 -13 69 l-24 51 -78 -199z"/>
<path d="M10968 10560 c-8 -19 -23 -57 -33 -85 -10 -27 -21 -54 -25 -60 -4 -5
-15 -32 -24 -60 -10 -27 -26 -69 -37 -92 -10 -24 -19 -45 -19 -48 0 -2 -51
-134 -114 -292 -201 -506 -303 -767 -310 -790 -7 -21 -4 -23 32 -23 l39 0 51
128 c28 70 84 213 125 317 41 105 141 356 221 558 80 203 146 376 145 385 0 9
-9 35 -18 57 l-18 40 -15 -35z"/>
<path d="M16528 10569 c-5 -3 -8 -21 -6 -40 l3 -33 153 0 152 0 0 -691 c0
-381 2 -694 5 -696 2 -3 20 -3 38 -1 l34 4 -1 675 c-1 371 2 683 6 693 9 24
65 25 70 1 2 -9 3 -321 3 -693 l-1 -676 28 -4 c15 -3 32 -2 38 2 6 4 11 241
12 696 l3 689 35 0 35 0 1 -683 c1 -375 4 -688 7 -695 3 -9 17 -12 38 -9 l34
4 0 685 c0 377 2 688 5 692 3 4 20 7 38 8 31 0 32 0 33 -46 0 -25 0 -337 -1
-693 l-1 -648 41 0 40 0 0 693 0 693 138 -1 c174 0 172 -1 172 41 0 20 -5 34
-12 35 -55 5 -1132 3 -1140 -2z"/>
<path d="M2951 10489 c-63 -12 -117 -50 -131 -94 -20 -60 -1 -136 47 -183 7
-7 13 -11 13 -7 0 3 8 1 18 -4 10 -6 73 -11 140 -12 223 -3 336 -43 452 -161
42 -44 114 -178 125 -233 39 -209 -10 -391 -140 -520 -68 -68 -158 -116 -269
-145 -56 -14 -102 -17 -221 -15 -129 2 -172 6 -230 20 -126 29 -237 78 -318
139 -26 20 -51 36 -55 36 -11 -1 -52 -37 -52 -47 1 -27 180 -131 291 -168 141
-49 219 -60 394 -59 146 1 181 6 278 40 103 35 175 80 248 155 114 116 168
263 163 440 -6 259 -143 465 -364 552 -83 32 -125 39 -284 42 -126 2 -130 3
-152 28 -19 22 -21 32 -14 59 12 40 18 46 60 58 42 12 239 6 307 -10 45 -10
55 -9 77 5 32 21 32 29 1 43 -81 37 -285 59 -384 41z"/>
<path d="M11052 10353 c-8 -21 -17 -47 -22 -58 -6 -11 -57 -141 -115 -290 -58
-148 -110 -279 -115 -290 -15 -33 -160 -404 -160 -410 0 -3 -9 -24 -20 -48
-10 -23 -28 -66 -39 -94 l-21 -53 43 0 c41 0 43 2 59 43 9 23 42 107 72 187
31 80 61 155 66 168 24 53 32 74 84 207 30 77 93 238 140 357 63 159 84 223
77 235 -5 10 -15 33 -23 51 l-13 33 -13 -38z"/>
<path d="M6561 10217 c-34 -89 -69 -175 -76 -192 -7 -16 -65 -163 -129 -326
-63 -163 -142 -362 -174 -442 l-59 -147 43 0 c40 0 43 2 59 43 9 23 71 179
136 347 66 168 124 314 129 325 5 11 48 119 95 239 l86 220 -18 48 c-9 26 -19
48 -22 48 -4 0 -35 -73 -70 -163z"/>
<path d="M6700 10161 c0 -6 -41 -116 -91 -244 -51 -128 -139 -351 -196 -497
-58 -146 -109 -275 -114 -287 -8 -22 -6 -23 34 -23 l42 1 87 222 c48 122 133
337 188 477 99 250 101 256 89 297 -11 41 -39 79 -39 54z"/>
<path d="M11073 9987 c-40 -100 -111 -281 -158 -402 -47 -121 -90 -229 -95
-240 -12 -25 -90 -228 -90 -233 0 -2 18 -2 41 0 l41 3 85 215 c46 118 88 224
93 235 5 11 52 129 104 262 l95 241 -17 51 c-9 28 -18 51 -21 51 -3 0 -38 -82
-78 -183z"/>
<path d="M6638 9668 l-17 -38 165 0 164 0 -12 28 c-7 15 -16 32 -20 37 -5 6
-64 10 -137 10 l-127 1 -16 -38z"/>
<path d="M11076 9673 c-9 -19 -16 -36 -16 -38 0 -3 72 -5 161 -5 l160 0 -7 23
c-16 52 -15 52 -152 52 l-130 1 -16 -33z"/>
<path d="M6590 9546 c0 -2 -6 -19 -14 -38 l-15 -34 220 1 c120 0 219 4 220 8
1 4 -4 21 -11 37 l-12 30 -194 0 c-107 0 -194 -2 -194 -4z"/>
<path d="M11015 9514 c-8 -20 -15 -37 -15 -38 0 -1 99 -2 220 -2 121 -1 220 2
220 6 0 4 -5 21 -11 39 l-11 31 -194 0 -194 0 -15 -36z"/>
<path d="M6517 9358 l-15 -38 284 0 c156 0 284 1 284 3 0 2 -8 19 -17 38 l-18
35 -252 1 -251 0 -15 -39z"/>
<path d="M10954 9362 c-8 -19 -13 -36 -12 -38 6 -5 56 -6 305 -5 l261 1 -18
38 -18 37 -252 1 -251 1 -15 -35z"/>
<path d="M9916 7393 c-119 -35 -215 -141 -232 -256 -2 -17 -5 -242 -5 -498
l-1 -466 -108 -42 c-325 -125 -588 -395 -694 -711 l-25 -75 -1492 0 -1491 0
-23 65 c-139 410 -498 720 -915 790 -82 14 -303 18 -362 7 -21 -4 -55 -10 -75
-13 -73 -12 -209 -56 -293 -95 -127 -60 -244 -142 -351 -249 -237 -236 -353
-526 -344 -855 4 -122 5 -131 31 -245 102 -452 442 -802 878 -905 150 -36 161
-37 291 -37 347 0 646 128 893 382 103 106 226 315 271 460 l11 35 1485 0
1484 1 27 -76 c80 -225 247 -450 435 -583 114 -81 314 -171 424 -191 17 -3 57
-11 90 -17 60 -11 274 -14 330 -5 17 3 50 8 75 12 73 10 245 70 331 115 177
92 330 231 446 404 54 81 80 133 123 245 l36 95 1484 0 1483 0 28 -82 c111
-323 387 -603 709 -722 325 -119 696 -93 998 71 333 181 573 527 620 895 9 70
9 270 0 333 -52 372 -279 705 -604 887 -260 146 -551 190 -859 128 -16 -3 -49
-13 -73 -21 -23 -7 -48 -14 -54 -14 -28 0 -242 -114 -314 -168 -203 -150 -356
-361 -434 -597 l-17 -50 -1484 -1 -1483 -1 -34 89 c-129 343 -412 619 -743
723 l-54 17 -1 472 c0 259 -3 485 -6 501 -9 45 -36 104 -66 142 -31 39 -105
89 -154 104 -53 16 -140 17 -192 2z m214 -1843 c242 -58 413 -263 425 -508 5
-100 -10 -172 -56 -268 -161 -331 -589 -412 -863 -163 -181 166 -230 425 -121
645 78 158 244 282 405 301 25 3 46 6 48 8 7 6 114 -3 162 -15z m5345 -15
c379 -127 502 -596 232 -891 -284 -311 -790 -200 -929 204 -18 53 -23 88 -22
167 1 121 24 197 90 296 142 215 392 304 629 224z m-10650 4 c184 -54 304
-148 378 -294 74 -148 71 -342 -8 -498 -19 -38 -40 -74 -47 -82 -76 -82 -120
-118 -181 -149 -223 -113 -471 -72 -646 106 -279 283 -163 775 214 901 39 13
90 24 115 26 25 2 46 4 47 5 6 5 94 -4 128 -15z"/>
</g>
</svg>
